<?xml version="1.0" encoding="utf-8"?>
<!-- Generator: Adobe Illustrator 24.3.0, SVG Export Plug-In . SVG Version: 6.00 Build 0)  -->
<svg version="1.1" id="Layer_1" xmlns="http://www.w3.org/2000/svg" xmlns:xlink="http://www.w3.org/1999/xlink" x="0px" y="0px"
	 viewBox="0 0 52.5 56.7" style="enable-background:new 0 0 52.5 56.7;" xml:space="preserve">
<style type="text/css">
	.st0{fill:#243B5D;}
	.st1{fill:#DD4339;}
	.st2{fill:#FFFFFF;}
</style>
<g>
	<g>
		<path class="st0" d="M26.2,54.2c5.4-4.7,7.1-3.7,14.9-9.3c7.8-5.6,9.4-12.6,9.4-17.7c0-10,0-25.2,0-25.2H2c0,0,0,15.2,0,25.2
			c0,5.1,1.6,12.1,9.4,17.7C19.2,50.4,21.1,49.6,26.2,54.2z"/>
		<path class="st1" d="M26.2,56.7L25,55.6c-2.5-2.2-4.1-3-6.3-4.1c-2-1-4.6-2.3-8.4-5C3.5,41.6,0,35,0,27.2V0h52.5v27.2
			c0,7.8-3.5,14.5-10.2,19.2c-3.9,2.8-6.3,4-8.3,5c-2.1,1.1-3.8,1.9-6.4,4.2L26.2,56.7z M3.9,3.9v23.3c0,6.6,2.9,12,8.6,16.1
			c3.6,2.6,5.9,3.7,7.9,4.7c1.9,1,3.6,1.8,5.9,3.6c2.3-1.8,4-2.7,5.9-3.6c2-1,4.2-2.1,7.8-4.7c5.7-4.1,8.6-9.5,8.6-16.1V3.9H3.9z"/>
	</g>
	<g>
		<g>
			<polygon class="st2" points="14.4,38.9 14.4,9.6 38.1,9.6 38.1,16 21.1,16 21.1,21.1 35.7,21.1 35.7,27.4 21.1,27.4 21.1,32.5 
				38.1,32.5 38.1,38.9 			"/>
			<path class="st2" d="M38.1,39.5H14.4c-0.4,0-0.7-0.3-0.7-0.7V9.6C13.7,9.3,14,9,14.4,9h23.8c0.4,0,0.7,0.3,0.7,0.7V16
				c0,0.4-0.3,0.7-0.7,0.7H21.8v3.8h13.9c0.4,0,0.7,0.3,0.7,0.7v6.3c0,0.4-0.3,0.7-0.7,0.7H21.8v3.8h16.4c0.4,0,0.7,0.3,0.7,0.7v6.3
				C38.8,39.2,38.5,39.5,38.1,39.5z M15,38.2h22.4v-5H21.1c-0.4,0-0.7-0.3-0.7-0.7v-5.1c0-0.4,0.3-0.7,0.7-0.7H35v-5H21.1
				c-0.4,0-0.7-0.3-0.7-0.7V16c0-0.4,0.3-0.7,0.7-0.7h16.4v-5H15V38.2z"/>
		</g>
		<g>
			<g>
				<polygon class="st0" points="21.1,21.1 21.1,16 38.1,16 38.1,9.6 38.1,9.6 34.8,12.8 17.7,12.8 17.7,12.8 17.7,24.2 17.7,24.2 
									"/>
			</g>
			<g>
				<polygon class="st0" points="21.1,32.5 21.1,27.4 35.7,27.4 35.7,21.1 32.3,24.2 17.7,24.2 17.7,35.7 				"/>
			</g>
			<g>
				<polygon class="st0" points="14.4,38.9 17.7,35.7 34.8,35.7 38.1,32.5 38.1,32.5 38.1,38.9 				"/>
			</g>
		</g>
	</g>
</g>
</svg>
